<?xml version="1.0" encoding="utf-8"?>
<!-- Generator: Adobe Illustrator 24.1.1, SVG Export Plug-In . SVG Version: 6.00 Build 0)  -->
<svg version="1.1" id="Layer_1" xmlns="http://www.w3.org/2000/svg" xmlns:xlink="http://www.w3.org/1999/xlink" x="0px" y="0px"
	 viewBox="0 0 100 100" style="enable-background:new 0 0 100 100;" xml:space="preserve">
<style type="text/css">
	.st0{fill:#E1D2FF;}
	.st1{fill:#6743FF;}
</style>
<g>
	<circle class="st0" cx="49.9" cy="50.1" r="50"/>
	<g>
		<path class="st1" d="M64.1,75.8c-0.3,0-0.5-0.1-0.8-0.2c-2.3-1.2-4.7-2.3-7-3.4c-1.9-1-3.9-1.9-5.8-2.9c-0.2-0.1-0.4-0.2-0.6-0.2
			c-0.2,0-0.4,0-0.6,0.1c-2.1,1-4.2,2.1-6.4,3.1c-2.2,1.1-4.3,2.1-6.5,3.2c-0.3,0.1-0.6,0.2-0.8,0.2c-0.2,0-0.5-0.1-0.8-0.2
			c-2.1-1-4.1-2-6.2-3c-2.4-1.2-4.9-2.4-7.3-3.6c-0.2-0.1-0.5-0.3-0.7-0.5c-0.1-0.1-0.2-0.2-0.3-0.3V51.4c0.1-0.1,0.2-0.2,0.3-0.3
			c0.2-0.2,0.5-0.4,0.8-0.6c4.3-2.1,8.6-4.1,12.9-6.2c0.4-0.2,0.6-0.4,0.6-0.9c0-0.9,0-6.7,0-7.5l0-0.6c0-0.7,0.4-1.2,1-1.2
			c0.6,0,1,0.5,1,1.2c0,0.4,0,0.8,0,1.3c0,0.7,0,6.3,0,7c0,0.2,0.2,0.5,0.4,0.6c3.3,1.7,6.6,3.3,10,5l1.1,0.5c0,0,0.1,0,0.2,0l0.1,0
			l0.1-0.1l0-0.2c0-0.1,0-0.2,0-0.3l0-3.6c0-3,0-6,0-9c0-0.3-0.1-0.6-0.5-0.8c-2.7-1.3-5.4-2.7-8.1-4l-2.8-1.4
			c-0.1,0-0.1-0.1-0.2-0.1l-0.3-0.1l0,0.4c0,0.1,0,0.2,0,0.4c-0.1,0.5-0.5,0.9-1,0.9c-0.5,0-1-0.4-1-0.9c0-0.8,0-1.7,0-2.6
			c0-0.4,0.3-0.7,0.8-0.9c3.1-1.5,6.2-3.1,9.3-4.6l3-1.5c0.4-0.2,0.8-0.4,1.1-0.6c0.2-0.1,0.5-0.2,0.7-0.2c0.2,0,0.4,0.1,0.6,0.2
			c4.5,2.3,9.1,4.5,13.6,6.8c0.5,0.2,0.7,0.6,0.7,1.2c0,1.7,0,3.4,0,5.1c0,3.1,0,6.2,0,9.3c0,0.7,0.2,1,0.8,1.3c2,0.9,4,1.9,6,2.9
			c2.2,1.1,4.4,2.1,6.6,3.1c0.8,0.4,1.1,0.8,1.1,1.7c0,5.3,0,10.5,0,15.3c0,0.7-0.3,1.1-0.9,1.4c-4.5,2.2-9.1,4.4-13.6,6.6
			C64.6,75.8,64.4,75.8,64.1,75.8z M51,53.7l0,0.1l0,1.5c0,3.9,0,7.7,0,11.6c0,0.2,0.2,0.5,0.5,0.6c1.2,0.6,2.4,1.2,3.7,1.8l8,3.9
			l0-3.6c0-3.2,0-6.4,0-9.6c0-0.5-0.2-0.7-0.6-0.9c-2.7-1.3-5.4-2.6-8-3.9l-2.7-1.3c-0.1-0.1-0.3-0.1-0.4-0.2L51,53.4L51,53.7z
			 M22.5,53.7c0,0.1,0,0.1,0,0.1l0,3.2c0,3.3,0,6.5,0,9.8c0,0.4,0.2,0.6,0.5,0.7c1.5,0.7,11.6,5.7,11.6,5.7l0-0.3c0-0.1,0-0.1,0-0.1
			v-3.1c0-3.3,0-6.5,0-9.8c0-0.5-0.3-0.6-0.5-0.7l-10.9-5.3c-0.1-0.1-0.2-0.1-0.3-0.2l-0.3-0.1L22.5,53.7z M48.6,53.5
			c-0.1,0-0.1,0-0.1,0l-1,0.5c-3.4,1.7-6.9,3.4-10.3,5.1c-0.2,0.1-0.4,0.4-0.4,0.7c0,1.7,0,3.3,0,5l0,8.3L37,73
			c0.1,0,0.1-0.1,0.2-0.1l2.6-1.3c2.9-1.4,5.7-2.8,8.6-4.2c0.4-0.2,0.4-0.5,0.4-0.8l0-12.6c0-0.1,0-0.2,0-0.3l0-0.3L48.6,53.5z
			 M77,53.6c-0.1,0-0.2,0.1-0.2,0.1L74,55c-2.8,1.4-5.6,2.7-8.4,4.1c-0.4,0.2-0.4,0.5-0.4,0.8c0,2.9,0,12.6,0,12.6
			c0,0.1,0,0.2,0,0.3l0,0.3l0.3-0.1c0.1,0,0.2-0.1,0.2-0.1l2.8-1.4c2.8-1.4,5.5-2.7,8.3-4c0.4-0.2,0.4-0.4,0.4-0.7c0-1.5,0-3,0-4.5
			l0-8.8L77,53.6z M36.1,46c-0.2,0-0.4,0-0.5,0.1c-3.4,1.6-6.8,3.2-10.1,4.8l-0.8,0.4c-0.1,0-0.2,0.1-0.3,0.2l-0.4,0.2l2.1,1
			c3.2,1.5,6.3,3.1,9.4,4.6c0.1,0,0.2,0.1,0.3,0.1c0.2,0,0.4-0.1,0.6-0.1c2.7-1.3,5.3-2.6,8-3.9l3.4-1.7l-2.2-1.1
			c-3.1-1.5-6.1-3-9.1-4.5C36.3,46.1,36.2,46,36.1,46z M63.9,46.1c-0.2,0-0.4,0-0.5,0.1c-3.1,1.5-6.2,3.1-9.3,4.6l-1.1,0.6
			c-0.1,0-0.2,0.1-0.3,0.1l-0.3,0.2l0.2,0.2c0,0,0.1,0.1,0.1,0.1l1.2,0.6c3.3,1.6,6.6,3.2,9.8,4.8c0.1,0,0.2,0.1,0.3,0.1
			c0.2,0,0.3,0,0.5-0.1c1.1-0.5,2.1-1,3.2-1.5l8.1-4l-0.3-0.2c-0.1,0-0.1-0.1-0.1-0.1l-1.3-0.6c-3.3-1.6-6.6-3.2-10-4.7
			C64.1,46.1,64,46.1,63.9,46.1z M62.4,30.4c-0.1,0-0.1,0-0.2,0.1l-2.5,1.3c-2.8,1.4-5.6,2.8-8.3,4.2c-0.4,0.2-0.4,0.4-0.4,0.8
			c0,3,0,6,0,9.1l0,3.5c0,0.1,0,0.2,0,0.3l0,0.3l0.3-0.1c0.1,0,0.1,0,0.2-0.1l2.8-1.4c2.7-1.4,5.4-2.7,8.1-4.1
			c0.4-0.2,0.4-0.5,0.4-0.8c0-2.5,0-13.1,0-13.1v-0.2L62.4,30.4z M49.9,22.9c-0.1,0-0.3,0-0.4,0.1c-0.4,0.2-0.9,0.4-1.3,0.6
			l-9.8,4.9l0.2,0.2c0,0,0.1,0.1,0.1,0.1l1.1,0.6c3.2,1.6,6.4,3.2,9.6,4.8c0.1,0,0.2,0.1,0.3,0.1c0.2,0,0.3,0,0.5-0.1
			c3.5-1.7,7-3.5,10.5-5.2c0.1,0,0.1-0.1,0.2-0.2l0.3-0.2l-1.9-0.9c-3.1-1.6-6.2-3.1-9.3-4.6C50.2,22.9,50.1,22.9,49.9,22.9z"/>
	</g>
</g>
</svg>
