<svg width="44" height="44" viewBox="0 0 44 44" fill="none" xmlns="http://www.w3.org/2000/svg">
<circle cx="22" cy="22" r="22" fill="#FFCD73" fill-opacity="0.2"/>
<g clip-path="url(#clip0_1252_3)">
<path d="M29.9325 16.1702H15.0675L10 22.5999L22.1915 34.9937H22.8085L35 22.5999L29.9325 16.1702ZM17.8344 23.2785L20.7121 31.402L12.7212 23.2785H17.8344ZM25.6159 23.2785L22.5018 32.0693L19.3877 23.2785H25.6159ZM19.4307 21.8144L21.0933 17.6343H23.9102L25.5729 21.8144H19.4307ZM27.1691 23.2785H32.2788L24.2934 31.3964L27.1691 23.2785ZM32.5167 21.8144H27.1485L25.4859 17.6343H29.2222L32.5167 21.8144ZM15.7778 17.6343H19.5176L17.855 21.8143H12.4833L15.7778 17.6343Z" fill="#FB7F49"/>
<path d="M21.7681 10.0063H23.2322V13.3028H21.7681V10.0063Z" fill="#FB7F49"/>
<path d="M26.0278 13.6057L27.547 10.7048L28.8442 11.3841L27.325 14.285L26.0278 13.6057Z" fill="#FB7F49"/>
<path d="M16.1562 11.3887L17.4534 10.7094L18.9726 13.6103L17.6754 14.2896L16.1562 11.3887Z" fill="#FB7F49"/>
</g>
<defs>
<clipPath id="clip0_1252_3">
<rect width="25" height="25" fill="white" transform="translate(10 10)"/>
</clipPath>
</defs>
</svg>
